<?xml version="1.0" encoding="utf-8"?>
<!-- Generator: Adobe Illustrator 27.0.0, SVG Export Plug-In . SVG Version: 6.00 Build 0)  -->
<svg version="1.1" id="Layer_2_00000008147409879857796890000011910222694595340449_"
	 xmlns="http://www.w3.org/2000/svg" xmlns:xlink="http://www.w3.org/1999/xlink" x="0px" y="0px" viewBox="0 0 478.2 105.9"
	 style="enable-background:new 0 0 478.2 105.9;" xml:space="preserve">
<style type="text/css">
	.st0{fill:#F26C21;}
	.st1{fill:#0F2B3C;}
</style>
<g>
	<path class="st0" d="M64.4,51.6c8.9,4.7,13.4,12.6,13.4,23.6c0,9.8-3.4,17.1-10.2,21.9c-6.8,4.8-15.7,7.2-26.7,7.2H1.8
		c-0.5,0-0.9-0.2-1.3-0.5C0.2,103.4,0,103,0,102.5V2.9C0,2.5,0.2,2,0.5,1.7c0.3-0.3,0.8-0.5,1.3-0.5h38c12,0,21,2.3,27.2,6.8
		c6.1,4.5,9.2,11.8,9.2,21.9c0,9.6-3.9,16.5-11.8,20.8C63.8,51,63.8,51.3,64.4,51.6z M24.5,22.8v18.6c0,0.5,0.2,0.7,0.7,0.7h14.6
		c4,0,7.1-0.9,9.3-2.6c2.2-1.7,3.2-4.1,3.2-7.3c0-3.2-1.1-5.7-3.2-7.5c-2.2-1.8-5.3-2.7-9.3-2.7H25.2C24.7,22.1,24.5,22.3,24.5,22.8
		z M50.1,80.5c2.2-1.8,3.2-4.4,3.2-7.9c0-3.3-1.1-5.9-3.2-7.7c-2.1-1.8-5.2-2.7-9.2-2.7H25.2c-0.5,0-0.7,0.2-0.7,0.7v19.6
		c0,0.5,0.2,0.7,0.7,0.7h15.8C44.9,83.2,47.9,82.3,50.1,80.5z"/>
	<path class="st0" d="M108.3,101.1c-6-3.2-10.7-7.7-14.1-13.5c-3.3-5.8-5-12.5-5-20.2V38c0-7.5,1.7-14.1,5-19.8
		c3.3-5.7,8-10.2,14.1-13.4c6-3.2,13-4.8,21-4.8c8,0,15,1.6,21.1,4.8c6.1,3.2,10.8,7.7,14.1,13.4c3.3,5.7,5,12.3,5,19.8v29.5
		c0,7.7-1.7,14.4-5,20.2c-3.3,5.8-8.1,10.3-14.1,13.5c-6.1,3.2-13.1,4.8-21.1,4.8C121.4,105.9,114.4,104.3,108.3,101.1z M140.7,80.4
		c2.9-3,4.3-7.1,4.3-12.2V37.7c0-5-1.5-9.1-4.3-12.2c-2.9-3.1-6.7-4.6-11.4-4.6c-4.6,0-8.4,1.5-11.3,4.6c-2.9,3.1-4.3,7.1-4.3,12.2
		v30.5c0,5.1,1.4,9.2,4.3,12.2c2.9,3,6.7,4.6,11.3,4.6C134,85,137.8,83.5,140.7,80.4z"/>
	<path class="st0" d="M199.8,101.1c-6-3.2-10.7-7.7-14.1-13.5c-3.3-5.8-5-12.5-5-20.2V38c0-7.5,1.7-14.1,5-19.8
		c3.3-5.7,8-10.2,14.1-13.4c6-3.2,13-4.8,21-4.8c8,0,15,1.6,21.1,4.8c6.1,3.2,10.8,7.7,14.1,13.4c3.3,5.7,5,12.3,5,19.8v29.5
		c0,7.7-1.7,14.4-5,20.2c-3.3,5.8-8.1,10.3-14.1,13.5c-6.1,3.2-13.1,4.8-21.1,4.8C212.8,105.9,205.8,104.3,199.8,101.1z M232.2,80.4
		c2.9-3,4.3-7.1,4.3-12.2V37.7c0-5-1.5-9.1-4.3-12.2c-2.9-3.1-6.7-4.6-11.4-4.6c-4.6,0-8.4,1.5-11.3,4.6c-2.9,3.1-4.3,7.1-4.3,12.2
		v30.5c0,5.1,1.4,9.2,4.3,12.2c2.9,3,6.7,4.6,11.3,4.6C225.5,85,229.3,83.5,232.2,80.4z"/>
	<path class="st0" d="M274.3,103.8c-0.3-0.3-0.5-0.8-0.5-1.3V2.9c0-0.5,0.2-0.9,0.5-1.3c0.3-0.3,0.8-0.5,1.3-0.5h20.9
		c0.5,0,0.9,0.2,1.3,0.5c0.3,0.3,0.5,0.8,0.5,1.3v38.3c0,0.3,0.1,0.5,0.3,0.5c0.2,0.1,0.4,0,0.6-0.2l29.8-39.3c0.6-0.7,1.3-1,2.1-1
		h23.9c1,0,1.5,0.3,1.5,1c0,0.3-0.1,0.7-0.4,1.2L324,46c-0.2,0.4-0.2,0.7-0.1,1l33.3,55.2c0.2,0.6,0.3,0.9,0.3,1c0,0.7-0.5,1-1.5,1
		h-23.4c-1.1,0-1.8-0.4-2.2-1.2l-23.1-39.3c-0.3-0.6-0.6-0.6-1,0l-7.7,10.5c-0.2,0.4-0.3,0.7-0.3,0.9v27.4c0,0.5-0.2,0.9-0.5,1.3
		c-0.3,0.3-0.8,0.5-1.3,0.5h-20.9C275.1,104.3,274.7,104.1,274.3,103.8z"/>
	<path class="st1" d="M391.9,1.8c0.2,0.4,0.2,0.9,0,1.5l-12.5,30.9c-0.3,0.9-1,1.3-2.1,1.3h-15.8c-1.4,0-1.9-0.6-1.6-1.9l7.8-30.9
		c0.3-1,1-1.5,2.1-1.5h20.8C391.3,1.2,391.7,1.4,391.9,1.8z"/>
	<path class="st1" d="M400.6,103.8c-0.3-0.3-0.5-0.8-0.5-1.3V2.9c0-0.5,0.2-0.9,0.5-1.3c0.3-0.3,0.8-0.5,1.3-0.5h37.6
		c7.7,0,14.4,1.3,20.3,4s10.5,6.4,13.7,11.3c3.2,4.9,4.9,10.6,4.9,16.9V72c0,6.4-1.6,12-4.9,16.9c-3.2,4.9-7.8,8.7-13.7,11.3
		s-12.7,4-20.3,4h-37.6C401.3,104.3,400.9,104.1,400.6,103.8z M425.2,83.4h15.2c3.9,0,7.1-1.4,9.6-4.2c2.5-2.8,3.7-6.6,3.8-11.3
		V37.6c0-4.7-1.3-8.5-3.8-11.3c-2.5-2.8-5.8-4.2-9.8-4.2h-15c-0.5,0-0.7,0.2-0.7,0.7v59.8C424.5,83.1,424.7,83.4,425.2,83.4z"/>
</g>
</svg>
